{"title":"Mary Reilly (1996) Julia Roberts+John Malkovich (Opt.MULTISUBS)","uid":4810090,"size":741398946,"categoryP":"video","categoryS":"movies","magnet":"?xt=urn:btih:4601f6e1ac46b9ecc24c4ec7390c8b012a1b6502&amp;dn=Mary+Reilly+%281996%29+Julia+Roberts%2BJohn+Malkovich+%28Opt.MULTISUBS%29&amp;tr=udp%3A%2F%2Ftracker.openbittorrent.com%3A80&amp;tr=udp%3A%2F%2Fopen.demonii.com%3A1337&amp;tr=udp%3A%2F%2Ftracker.coppersurfer.tk%3A6969&amp;tr=udp%3A%2F%2Fexodus.desync.com%3A6969","seeders":5,"leechers":0,"uploader":"Kuthumi","files":-1,"time":1238347225,"description":" &lt;a href=&quot;http://www.imdb.com/title/tt0117002/&quot; rel=&quot;nofollow&quot; target=&quot;_NEW&quot;&gt;http://www.imdb.com/title/tt0117002/&lt;/a&gt;\n\nOptional subtitles in separate idx/sub files: (Work in Windows Media Player etc.): Czech, Danish, Dutch, English, Finnish, French, German, Greek, Hebrew, Hindi, Hungarian, Icelandic, Italian, Norwegian, Polish, Portuguese, Spanish, Swedish, Turkish.\n\nJulia Roberts in an unusual role as a simple housemaid in the mansion of Dr. Jekyll and Mr. Hyde (John Malkovich).\n\nLook out for Glenn Close as a whorehouse madam, and Michael Sheen (Tony Blair in 'The Queen', and David Frost in 'Frost/Nixon') as a nerd-like servant.\n\nThanks to Bero2000, who uploaded the DVD with all subs and audio tracks.\n\nWidescreen DVDrip XviD 2-pass 704x368, great stereo sound AC3.\nBurn tested, runs well in both my standalone DivX players.\n\nMediaInfo analysis:\n\nFormat/Info                      : Audio Video Interleave\nFile size                        : 698 MiB\nDuration                         : 1h 44mn\nOveral bit rate                  : 938 Kbps\n\nVideo\nFormat                           : MPEG-4 Visual\nFormat profile                   : Streaming Video@L1\nFormat settings, BVOP            : Yes\nFormat settings, QPel            : No\nFormat settings, GMC             : No warppoints\nFormat settings, Matrix          : Default\nMuxing mode                      : Packet Bitstream\nCodec ID                         : XVID\nCodec ID/Hint                    : XviD\nDuration                         : 1h 44mn\nBit rate                         : 801 Kbps\nWidth                            : 704 pixels\nHeight                           : 368 pixels\nDisplay aspect ratio             : 1.913\nFrame rate                       : 25.000 fps\nResolution                       : 8 bits\nColorimetry                      : 4:2:0\nScan type                        : Progressive\nBits/(Pixel*Frame)               : 0.124\nStream size                      : 596 MiB\nWriting library                  : XviD 1.2.0.dev47 (UTC 2006-11-01)\n\nAudio\nFormat                           : MPEG Audio\nFormat version                   : Version 1\nFormat profile                   : Layer 3\nCodec ID                         : 55\nCodec ID/Hint                    : MP3\nDuration                         : 1h 44mn\nBit rate mode                    : Constant\nBit rate                         : 128 Kbps\nMinimum bit rate                 : 128 Kbps\nChannel(s)                       : 2 channels\nSampling rate                    : 48.0 KHz\nResolution                       : 16 bits\nStream size                      : 95.2 MiB\nWriting library                  : LAME3.97 \nEncoding settings                : CBR\n\nSource: PAL native, 6.01 GiB","torrent":{"xt":"urn:btih:4601f6e1ac46b9ecc24c4ec7390c8b012a1b6502","amp;dn":"Mary+Reilly+%281996%29+Julia+Roberts%2BJohn+Malkovich+%28Opt.MULTISUBS%29","amp;tr":["udp%3A%2F%2Ftracker.openbittorrent.com%3A80","udp%3A%2F%2Fopen.demonii.com%3A1337","udp%3A%2F%2Ftracker.coppersurfer.tk%3A6969","udp%3A%2F%2Fexodus.desync.com%3A6969"],"infoHash":"4601f6e1ac46b9ecc24c4ec7390c8b012a1b6502","infoHashBuffer":{"type":"Buffer","data":[70,1,246,225,172,70,185,236,194,76,78,199,57,12,139,1,42,27,101,2]},"announce":[],"urlList":[]}}